<svg width="0" height="0" class="hidden">
  <symbol fill="none" xmlns="http://www.w3.org/2000/svg" viewBox="0 0 156 156" id="image_icon">
    <path d="M136.5 110.5L115.096 89.0955C113.877 87.8769 112.224 87.1924 110.5 87.1924C108.776 87.1924 107.123 87.8769 105.904 89.0955L102.095 92.9045C100.877 94.1231 99.2236 94.8076 97.5 94.8076C95.7764 94.8076 94.1234 94.1231 92.9045 92.9045L74.191 74.191C71.7531 71.7539 68.4471 70.3848 65 70.3848C61.5529 70.3848 58.2469 71.7539 55.809 74.191L19.5 110.5M136.5 32.5V123.5C136.5 125.224 135.815 126.877 134.596 128.096C133.377 129.315 131.724 130 130 130H26C24.2761 130 22.6228 129.315 21.4038 128.096C20.1848 126.877 19.5 125.224 19.5 123.5V32.5C19.5 30.7761 20.1848 29.1228 21.4038 27.9038C22.6228 26.6848 24.2761 26 26 26H130C131.724 26 133.377 26.6848 134.596 27.9038C135.815 29.1228 136.5 30.7761 136.5 32.5ZM104 52C104 53.7239 103.315 55.3772 102.096 56.5962C100.877 57.8152 99.2239 58.5 97.5 58.5C95.7761 58.5 94.1228 57.8152 92.9038 56.5962C91.6848 55.3772 91 53.7239 91 52C91 50.2761 91.6848 48.6228 92.9038 47.4038C94.1228 46.1848 95.7761 45.5 97.5 45.5C99.2239 45.5 100.877 46.1848 102.096 47.4038C103.315 48.6228 104 50.2761 104 52Z" stroke="white" stroke-width="13" stroke-linecap="round" stroke-linejoin="round"></path>
  </symbol>
  <symbol fill="none" xmlns="http://www.w3.org/2000/svg" viewBox="0 0 156 156" id="refresh_icon">
    <path d="M129.564 84.7665C128.337 94.1262 124.585 102.975 118.711 110.365C112.836 117.754 105.061 123.405 96.2192 126.711C87.3773 130.018 77.8022 130.855 68.5207 129.133C59.2393 127.411 50.6016 123.195 43.5341 116.937C36.4665 110.679 31.2358 102.615 28.4028 93.6107C25.5699 84.606 25.2415 74.9999 27.4531 65.8228C29.6646 56.6457 34.3326 48.2436 40.9563 41.5178C47.5801 34.792 55.9097 29.9961 65.052 27.6445C90.3955 21.1445 116.629 34.19 126.314 58.5" stroke="white" stroke-width="13" stroke-linecap="round" stroke-linejoin="round"></path>
    <path d="M130 26V58.5H97.5" stroke="white" stroke-width="13" stroke-linecap="round" stroke-linejoin="round"></path>
  </symbol>
</svg>